<svg width="113" height="30" viewBox="0 0 113 30" fill="none" xmlns="http://www.w3.org/2000/svg">
<path d="M27.04 12.68H16.608V17.16C17.536 16.552 18.624 16.2 20.064 16.2C23.392 16.2 25.504 18.28 25.504 21.704C25.504 23.784 24.8 25.8 23.008 28.072L19.136 25.928C20.288 24.584 21.056 23.272 21.056 21.768C21.056 20.424 20.384 19.752 19.232 19.752C18.176 19.752 17.152 20.424 16.608 21.32V29H12.128V24.936C10.912 25.704 9.408 26.088 7.776 26.088C3.84 26.088 1.12 24.04 1.12 20.296C1.12 16.68 3.648 14.632 8.032 14.632C9.12 14.632 10.208 14.728 11.168 14.92L10.784 18.472C10.144 18.312 9.376 18.216 8.576 18.216C6.656 18.216 5.6 19.016 5.6 20.424C5.6 21.8 6.624 22.504 8.128 22.504C9.792 22.504 11.264 21.544 12.128 20.424V12.68H0V9.096H27.04V12.68ZM33.5065 12.68V29H29.0265V12.68H26.5625V9.096H36.4505V12.68H33.5065ZM56.7688 9.096V12.68H53.7928V29H49.3448V24.456C48.1608 25.128 46.7848 25.512 45.0568 25.512C40.4168 25.512 37.6648 22.824 36.6408 17.512C39.6808 17 40.9928 16.168 40.9928 14.728C40.9928 13.928 40.6727 13.256 40.0968 12.68H35.9688V9.096H56.7688ZM41.6968 19.624C42.2408 21.096 43.2968 21.928 45.0888 21.928C46.7848 21.928 48.2248 21.128 49.3448 19.976V12.68H44.5768C45.1528 13.544 45.4408 14.44 45.4408 15.4C45.4408 17.576 44.1608 18.792 41.6968 19.624ZM49.0172 9.32C47.8012 8.136 47.0012 6.632 47.0012 4.936C47.0012 1.864 49.3052 0.327999 52.6972 0.327999C54.1052 0.327999 55.4812 0.583998 56.4093 1.032L55.6092 3.944C54.9052 3.688 54.3292 3.56 53.6252 3.56C52.1212 3.56 51.2892 4.392 51.2892 5.768C51.2892 7.016 51.9612 8.264 53.1452 9.32H49.0172Z" fill="#0042C6"/>
<path d="M76.5693 12.68V29H72.0893V24.68C70.6813 25.48 69.0813 25.864 67.0653 25.864C62.6813 25.864 59.3213 23.752 58.1053 18.952C63.0973 18.152 64.9213 16.392 64.9213 13.992C64.9213 12.712 64.3773 11.912 63.2893 11.912C62.4253 11.912 61.8813 12.424 61.8813 13.256C61.8813 13.96 62.3613 14.504 63.2893 14.856L60.9852 17.256C58.7773 16.36 57.8493 14.92 57.8493 13.16C57.8493 10.472 59.8333 8.776 63.1613 8.776C67.0333 8.776 69.0493 11.08 69.0493 14.408C69.0493 17.32 67.5453 19.56 63.8653 20.712C64.6333 21.8 65.7213 22.312 67.1933 22.312C69.0813 22.312 70.9053 21.48 72.0893 19.944V12.68H70.1693V9.096H79.5133V12.68H76.5693ZM79.0312 12.68V9.096H103.095V12.68H100.151V29H95.7033V18.92H95.6713C93.9113 18.92 92.7913 20.264 92.3753 23.4L88.1193 22.408C88.2473 21.32 88.5033 20.36 88.8553 19.528C88.3433 19.208 87.7353 18.984 87.0312 18.984C85.4953 18.984 84.6313 19.944 84.6313 21.384C84.6313 23.24 86.0073 24.616 89.7193 26.472L87.3513 29.736C82.8713 27.624 80.1513 24.872 80.1513 21.096C80.1513 17.256 82.6793 15.368 86.2633 15.368C88.1193 15.368 89.5593 15.944 90.7753 16.936C91.9593 15.944 93.5273 15.432 95.4153 15.432C95.5113 15.432 95.6073 15.432 95.7033 15.432V12.68H79.0312ZM109.6 12.68V29H105.12V12.68H102.656V9.096H105.216C103.808 4.84 103.104 3.976 101.344 3.976C100.544 3.976 99.7122 4.168 98.9442 4.456L97.8242 0.967999C98.9762 0.519999 100.256 0.327999 101.504 0.327999C105.472 0.327999 106.912 2.184 109.056 9.096H112.544V12.68H109.6Z" fill="black"/>
</svg>
